<mxfile host="app.diagrams.net" modified="2023-09-19T08:44:39.980Z" agent="Mozilla/5.0 (X11; Linux x86_64) AppleWebKit/537.36 (KHTML, like Gecko) Chrome/117.0.0.0 Safari/537.36" etag="eXWafqTdTTJe_i3OYEhs" version="21.7.5" type="github">
  <diagram name="Page-1" id="2YBvvXClWsGukQMizWep">
    <mxGraphModel dx="2045" dy="643" grid="1" gridSize="10" guides="1" tooltips="1" connect="1" arrows="1" fold="1" page="1" pageScale="1" pageWidth="850" pageHeight="1100" math="0" shadow="0">
      <root>
        <mxCell id="0" />
        <mxCell id="1" parent="0" />
        <mxCell id="wsWi3bMlTMWLQj8raXSB-1" value="&lt;div style=&quot;font-family: &amp;quot;Source Code Pro&amp;quot;, monospace; font-size: 11.3pt;&quot;&gt;&lt;font color=&quot;#000000&quot;&gt;SystemRebootPreferenceController&lt;/font&gt;&lt;/div&gt;" style="shape=umlLifeline;perimeter=lifelinePerimeter;whiteSpace=wrap;html=1;container=0;dropTarget=0;collapsible=0;recursiveResize=0;outlineConnect=0;portConstraint=eastwest;newEdgeStyle={&quot;edgeStyle&quot;:&quot;elbowEdgeStyle&quot;,&quot;elbow&quot;:&quot;vertical&quot;,&quot;curved&quot;:0,&quot;rounded&quot;:0};fillColor=default;fontColor=#333333;strokeColor=#666666;" parent="1" vertex="1">
          <mxGeometry x="-130" y="70" width="305" height="850" as="geometry" />
        </mxCell>
        <mxCell id="wsWi3bMlTMWLQj8raXSB-2" value="" style="html=1;points=[];perimeter=orthogonalPerimeter;outlineConnect=0;targetShapes=umlLifeline;portConstraint=eastwest;newEdgeStyle={&quot;edgeStyle&quot;:&quot;elbowEdgeStyle&quot;,&quot;elbow&quot;:&quot;vertical&quot;,&quot;curved&quot;:0,&quot;rounded&quot;:0};" parent="wsWi3bMlTMWLQj8raXSB-1" vertex="1">
          <mxGeometry x="147.5" y="55" width="10" height="235" as="geometry" />
        </mxCell>
        <mxCell id="wsWi3bMlTMWLQj8raXSB-3" value="handlePreferenceClicked" style="html=1;verticalAlign=bottom;startArrow=oval;endArrow=block;startSize=8;edgeStyle=elbowEdgeStyle;elbow=vertical;curved=0;rounded=0;" parent="wsWi3bMlTMWLQj8raXSB-1" target="wsWi3bMlTMWLQj8raXSB-2" edge="1">
          <mxGeometry relative="1" as="geometry">
            <mxPoint x="-15" y="70" as="sourcePoint" />
          </mxGeometry>
        </mxCell>
        <mxCell id="wsWi3bMlTMWLQj8raXSB-60" value="" style="html=1;points=[];perimeter=orthogonalPerimeter;outlineConnect=0;targetShapes=umlLifeline;portConstraint=eastwest;newEdgeStyle={&quot;edgeStyle&quot;:&quot;elbowEdgeStyle&quot;,&quot;elbow&quot;:&quot;vertical&quot;,&quot;curved&quot;:0,&quot;rounded&quot;:0};" parent="wsWi3bMlTMWLQj8raXSB-1" vertex="1">
          <mxGeometry x="147.5" y="400" width="10" height="220" as="geometry" />
        </mxCell>
        <mxCell id="wsWi3bMlTMWLQj8raXSB-90" value="" style="html=1;points=[];perimeter=orthogonalPerimeter;outlineConnect=0;targetShapes=umlLifeline;portConstraint=eastwest;newEdgeStyle={&quot;edgeStyle&quot;:&quot;elbowEdgeStyle&quot;,&quot;elbow&quot;:&quot;vertical&quot;,&quot;curved&quot;:0,&quot;rounded&quot;:0};" parent="wsWi3bMlTMWLQj8raXSB-1" vertex="1">
          <mxGeometry x="93" y="660" width="10" height="85" as="geometry" />
        </mxCell>
        <mxCell id="wsWi3bMlTMWLQj8raXSB-9" value="&lt;div style=&quot;font-family: &amp;quot;Source Code Pro&amp;quot;, monospace; font-size: 11.3pt;&quot;&gt;&lt;div style=&quot;font-size: 11.3pt;&quot;&gt;&lt;div style=&quot;font-size: 10.5pt;&quot;&gt;&lt;br&gt;&lt;/div&gt;&lt;/div&gt;&lt;/div&gt;" style="shape=umlLifeline;perimeter=lifelinePerimeter;whiteSpace=wrap;html=1;container=0;dropTarget=0;collapsible=0;recursiveResize=0;outlineConnect=0;portConstraint=eastwest;newEdgeStyle={&quot;edgeStyle&quot;:&quot;elbowEdgeStyle&quot;,&quot;elbow&quot;:&quot;vertical&quot;,&quot;curved&quot;:0,&quot;rounded&quot;:0};" parent="1" vertex="1">
          <mxGeometry x="799" y="70" width="200" height="850" as="geometry" />
        </mxCell>
        <mxCell id="wsWi3bMlTMWLQj8raXSB-10" style="edgeStyle=elbowEdgeStyle;rounded=0;orthogonalLoop=1;jettySize=auto;html=1;elbow=vertical;curved=0;" parent="wsWi3bMlTMWLQj8raXSB-9" target="wsWi3bMlTMWLQj8raXSB-9" edge="1">
          <mxGeometry relative="1" as="geometry">
            <mxPoint x="100" y="250" as="sourcePoint" />
          </mxGeometry>
        </mxCell>
        <mxCell id="wsWi3bMlTMWLQj8raXSB-71" value="" style="html=1;points=[];perimeter=orthogonalPerimeter;outlineConnect=0;targetShapes=umlLifeline;portConstraint=eastwest;newEdgeStyle={&quot;edgeStyle&quot;:&quot;elbowEdgeStyle&quot;,&quot;elbow&quot;:&quot;vertical&quot;,&quot;curved&quot;:0,&quot;rounded&quot;:0};" parent="wsWi3bMlTMWLQj8raXSB-9" vertex="1">
          <mxGeometry x="95" y="400" width="10" height="45" as="geometry" />
        </mxCell>
        <mxCell id="wsWi3bMlTMWLQj8raXSB-86" value="" style="html=1;points=[];perimeter=orthogonalPerimeter;outlineConnect=0;targetShapes=umlLifeline;portConstraint=eastwest;newEdgeStyle={&quot;edgeStyle&quot;:&quot;elbowEdgeStyle&quot;,&quot;elbow&quot;:&quot;vertical&quot;,&quot;curved&quot;:0,&quot;rounded&quot;:0};" parent="wsWi3bMlTMWLQj8raXSB-9" vertex="1">
          <mxGeometry x="95" y="602" width="10" height="80" as="geometry" />
        </mxCell>
        <mxCell id="wsWi3bMlTMWLQj8raXSB-12" value="&lt;div style=&quot;font-family: &amp;quot;Source Code Pro&amp;quot;, monospace; font-size: 11.3pt;&quot;&gt;&lt;div style=&quot;font-size: 10.5pt;&quot;&gt;ConfirmListener&lt;/div&gt;&lt;/div&gt;" style="shape=umlLifeline;perimeter=lifelinePerimeter;whiteSpace=wrap;html=1;container=0;dropTarget=0;collapsible=0;recursiveResize=0;outlineConnect=0;portConstraint=eastwest;newEdgeStyle={&quot;edgeStyle&quot;:&quot;elbowEdgeStyle&quot;,&quot;elbow&quot;:&quot;vertical&quot;,&quot;curved&quot;:0,&quot;rounded&quot;:0};" parent="1" vertex="1">
          <mxGeometry x="225" y="70" width="140" height="850" as="geometry" />
        </mxCell>
        <mxCell id="wsWi3bMlTMWLQj8raXSB-13" value="" style="html=1;points=[];perimeter=orthogonalPerimeter;outlineConnect=0;targetShapes=umlLifeline;portConstraint=eastwest;newEdgeStyle={&quot;edgeStyle&quot;:&quot;elbowEdgeStyle&quot;,&quot;elbow&quot;:&quot;vertical&quot;,&quot;curved&quot;:0,&quot;rounded&quot;:0};" parent="wsWi3bMlTMWLQj8raXSB-12" vertex="1">
          <mxGeometry x="65" y="259" width="10" height="71" as="geometry" />
        </mxCell>
        <mxCell id="wsWi3bMlTMWLQj8raXSB-19" value="&lt;div style=&quot;font-family: &amp;quot;Source Code Pro&amp;quot;, monospace; font-size: 11.3pt;&quot;&gt;&lt;div style=&quot;font-size: 11.3pt;&quot;&gt;&lt;div style=&quot;font-size: 10.5pt;&quot;&gt;BinderUpdateEngineAndroidService&lt;/div&gt;&lt;/div&gt;&lt;/div&gt;" style="shape=umlLifeline;perimeter=lifelinePerimeter;whiteSpace=wrap;html=1;container=0;dropTarget=0;collapsible=0;recursiveResize=0;outlineConnect=0;portConstraint=eastwest;newEdgeStyle={&quot;edgeStyle&quot;:&quot;elbowEdgeStyle&quot;,&quot;elbow&quot;:&quot;vertical&quot;,&quot;curved&quot;:0,&quot;rounded&quot;:0};" parent="1" vertex="1">
          <mxGeometry x="1020" y="70" width="295" height="850" as="geometry" />
        </mxCell>
        <mxCell id="wsWi3bMlTMWLQj8raXSB-75" value="" style="html=1;points=[];perimeter=orthogonalPerimeter;outlineConnect=0;targetShapes=umlLifeline;portConstraint=eastwest;newEdgeStyle={&quot;edgeStyle&quot;:&quot;elbowEdgeStyle&quot;,&quot;elbow&quot;:&quot;vertical&quot;,&quot;curved&quot;:0,&quot;rounded&quot;:0};" parent="wsWi3bMlTMWLQj8raXSB-19" vertex="1">
          <mxGeometry x="142.5" y="475" width="10" height="45" as="geometry" />
        </mxCell>
        <mxCell id="wsWi3bMlTMWLQj8raXSB-81" value="" style="html=1;points=[];perimeter=orthogonalPerimeter;outlineConnect=0;targetShapes=umlLifeline;portConstraint=eastwest;newEdgeStyle={&quot;edgeStyle&quot;:&quot;elbowEdgeStyle&quot;,&quot;elbow&quot;:&quot;vertical&quot;,&quot;curved&quot;:0,&quot;rounded&quot;:0};" parent="wsWi3bMlTMWLQj8raXSB-19" vertex="1">
          <mxGeometry x="142.5" y="578" width="10" height="32" as="geometry" />
        </mxCell>
        <mxCell id="wsWi3bMlTMWLQj8raXSB-106" value="" style="html=1;points=[];perimeter=orthogonalPerimeter;outlineConnect=0;targetShapes=umlLifeline;portConstraint=eastwest;newEdgeStyle={&quot;edgeStyle&quot;:&quot;elbowEdgeStyle&quot;,&quot;elbow&quot;:&quot;vertical&quot;,&quot;curved&quot;:0,&quot;rounded&quot;:0};" parent="wsWi3bMlTMWLQj8raXSB-19" vertex="1">
          <mxGeometry x="143" y="542" width="10" height="28" as="geometry" />
        </mxCell>
        <mxCell id="wsWi3bMlTMWLQj8raXSB-84" style="edgeStyle=orthogonalEdgeStyle;rounded=0;orthogonalLoop=1;jettySize=auto;html=1;" parent="1" source="wsWi3bMlTMWLQj8raXSB-31" edge="1">
          <mxGeometry relative="1" as="geometry">
            <mxPoint x="1294" y="650" as="targetPoint" />
          </mxGeometry>
        </mxCell>
        <mxCell id="wsWi3bMlTMWLQj8raXSB-31" value="update_engine 执行更新触发进度回调" style="shape=note;whiteSpace=wrap;html=1;backgroundOutline=1;darkOpacity=0.05;" parent="1" vertex="1">
          <mxGeometry x="1234" y="690" width="120" height="90" as="geometry" />
        </mxCell>
        <mxCell id="wsWi3bMlTMWLQj8raXSB-44" value="reboot(reason)" style="edgeLabel;html=1;align=center;verticalAlign=middle;resizable=0;points=[];" parent="1" vertex="1" connectable="0">
          <mxGeometry x="387" y="370.0033333333334" as="geometry">
            <mxPoint x="-4" y="1" as="offset" />
          </mxGeometry>
        </mxCell>
        <mxCell id="wsWi3bMlTMWLQj8raXSB-72" value="" style="edgeStyle=elbowEdgeStyle;rounded=0;orthogonalLoop=1;jettySize=auto;html=1;elbow=vertical;curved=0;" parent="1" target="wsWi3bMlTMWLQj8raXSB-71" edge="1">
          <mxGeometry relative="1" as="geometry">
            <mxPoint x="500" y="492.8333333333335" as="sourcePoint" />
          </mxGeometry>
        </mxCell>
        <mxCell id="wsWi3bMlTMWLQj8raXSB-73" value="&lt;div style=&quot;font-family: &amp;quot;Source Code Pro&amp;quot;, monospace;&quot;&gt;&lt;font style=&quot;font-size: 11px;&quot;&gt;new&lt;/font&gt;&lt;/div&gt;" style="edgeLabel;html=1;align=center;verticalAlign=middle;resizable=0;points=[];" parent="1" vertex="1" connectable="0">
          <mxGeometry x="610" y="470.0033333333334" as="geometry">
            <mxPoint y="7" as="offset" />
          </mxGeometry>
        </mxCell>
        <mxCell id="wsWi3bMlTMWLQj8raXSB-76" value="" style="edgeStyle=elbowEdgeStyle;rounded=0;orthogonalLoop=1;jettySize=auto;html=1;elbow=vertical;curved=0;" parent="1" target="wsWi3bMlTMWLQj8raXSB-75" edge="1">
          <mxGeometry relative="1" as="geometry">
            <mxPoint x="510" y="558.6666666666667" as="sourcePoint" />
          </mxGeometry>
        </mxCell>
        <mxCell id="wsWi3bMlTMWLQj8raXSB-79" value="" style="endArrow=none;dashed=1;html=1;dashPattern=1 3;strokeWidth=2;rounded=0;" parent="1" edge="1">
          <mxGeometry width="50" height="50" relative="1" as="geometry">
            <mxPoint x="768" y="940" as="sourcePoint" />
            <mxPoint x="768" y="40" as="targetPoint" />
          </mxGeometry>
        </mxCell>
        <mxCell id="wsWi3bMlTMWLQj8raXSB-80" value="&lt;div style=&quot;font-family: &amp;quot;Source Code Pro&amp;quot;, monospace;&quot;&gt;bind（IUpdateEngineCallback）&lt;/div&gt;" style="edgeLabel;html=1;align=center;verticalAlign=middle;resizable=0;points=[];" parent="1" vertex="1" connectable="0">
          <mxGeometry x="999" y="540.0033333333333" as="geometry">
            <mxPoint y="7" as="offset" />
          </mxGeometry>
        </mxCell>
        <mxCell id="wsWi3bMlTMWLQj8raXSB-82" value="" style="endArrow=classic;html=1;rounded=0;shadow=0;startArrow=oval;startFill=1;" parent="1" edge="1">
          <mxGeometry width="50" height="50" relative="1" as="geometry">
            <mxPoint x="1290.48" y="651" as="sourcePoint" />
            <mxPoint x="1172.5" y="651" as="targetPoint" />
            <Array as="points">
              <mxPoint x="1290.48" y="651" />
              <mxPoint x="1260.48" y="651" />
            </Array>
          </mxGeometry>
        </mxCell>
        <mxCell id="wsWi3bMlTMWLQj8raXSB-85" value="&lt;div style=&quot;font-family: &amp;quot;Source Code Pro&amp;quot;, monospace;&quot;&gt;sendStatusUpdate&lt;/div&gt;" style="edgeLabel;html=1;align=center;verticalAlign=middle;resizable=0;points=[];" parent="1" vertex="1" connectable="0">
          <mxGeometry x="1234" y="630.0033333333333" as="geometry">
            <mxPoint y="7" as="offset" />
          </mxGeometry>
        </mxCell>
        <mxCell id="wsWi3bMlTMWLQj8raXSB-87" value="" style="edgeStyle=elbowEdgeStyle;rounded=0;orthogonalLoop=1;jettySize=auto;html=1;elbow=vertical;curved=0;dashed=1;" parent="1" edge="1">
          <mxGeometry relative="1" as="geometry">
            <mxPoint x="1162.5" y="681.3913043478262" as="sourcePoint" />
            <mxPoint x="904" y="681.3913043478262" as="targetPoint" />
          </mxGeometry>
        </mxCell>
        <mxCell id="wsWi3bMlTMWLQj8raXSB-89" value="&lt;div style=&quot;font-family: &amp;quot;Source Code Pro&amp;quot;, monospace;&quot;&gt;&lt;font style=&quot;font-size: 9px;&quot;&gt;onStatusUpdate/onPayloadApplicationComplete&lt;/font&gt;&lt;/div&gt;" style="edgeLabel;html=1;align=center;verticalAlign=middle;resizable=0;points=[];" parent="1" vertex="1" connectable="0">
          <mxGeometry x="1035" y="664.0033333333333" as="geometry">
            <mxPoint y="7" as="offset" />
          </mxGeometry>
        </mxCell>
        <mxCell id="wsWi3bMlTMWLQj8raXSB-91" value="" style="edgeStyle=elbowEdgeStyle;rounded=0;orthogonalLoop=1;jettySize=auto;html=1;elbow=vertical;curved=0;" parent="1" source="wsWi3bMlTMWLQj8raXSB-86" target="wsWi3bMlTMWLQj8raXSB-90" edge="1">
          <mxGeometry relative="1" as="geometry">
            <mxPoint x="764.68" y="740.0013043478262" as="sourcePoint" />
            <mxPoint x="120.00000000000017" y="746.045" as="targetPoint" />
            <Array as="points">
              <mxPoint x="670" y="740" />
            </Array>
          </mxGeometry>
        </mxCell>
        <mxCell id="wsWi3bMlTMWLQj8raXSB-92" value="&lt;div style=&quot;font-family: &amp;quot;Source Code Pro&amp;quot;, monospace;&quot;&gt;&lt;font style=&quot;font-size: 11px;&quot;&gt;rebootNow&lt;/font&gt;&lt;/div&gt;" style="edgeLabel;html=1;align=center;verticalAlign=middle;resizable=0;points=[];" parent="1" vertex="1" connectable="0">
          <mxGeometry x="400" y="721.0033333333333" as="geometry">
            <mxPoint y="7" as="offset" />
          </mxGeometry>
        </mxCell>
        <mxCell id="wsWi3bMlTMWLQj8raXSB-93" value="&lt;div style=&quot;font-family: &amp;quot;Source Code Pro&amp;quot;, monospace; font-size: 11.3pt;&quot;&gt;&lt;div style=&quot;font-size: 11.3pt;&quot;&gt;&lt;div style=&quot;font-size: 10.5pt;&quot;&gt;PowerManager&lt;/div&gt;&lt;/div&gt;&lt;/div&gt;" style="shape=umlLifeline;perimeter=lifelinePerimeter;whiteSpace=wrap;html=1;container=0;dropTarget=0;collapsible=0;recursiveResize=0;outlineConnect=0;portConstraint=eastwest;newEdgeStyle={&quot;edgeStyle&quot;:&quot;elbowEdgeStyle&quot;,&quot;elbow&quot;:&quot;vertical&quot;,&quot;curved&quot;:0,&quot;rounded&quot;:0};" parent="1" vertex="1">
          <mxGeometry x="442" y="70" width="110" height="850" as="geometry" />
        </mxCell>
        <mxCell id="wsWi3bMlTMWLQj8raXSB-95" value="" style="html=1;points=[];perimeter=orthogonalPerimeter;outlineConnect=0;targetShapes=umlLifeline;portConstraint=eastwest;newEdgeStyle={&quot;edgeStyle&quot;:&quot;elbowEdgeStyle&quot;,&quot;elbow&quot;:&quot;vertical&quot;,&quot;curved&quot;:0,&quot;rounded&quot;:0};" parent="wsWi3bMlTMWLQj8raXSB-93" vertex="1">
          <mxGeometry x="50" y="701" width="10" height="40" as="geometry" />
        </mxCell>
        <mxCell id="wsWi3bMlTMWLQj8raXSB-41" value="" style="html=1;points=[];perimeter=orthogonalPerimeter;outlineConnect=0;targetShapes=umlLifeline;portConstraint=eastwest;newEdgeStyle={&quot;edgeStyle&quot;:&quot;elbowEdgeStyle&quot;,&quot;elbow&quot;:&quot;vertical&quot;,&quot;curved&quot;:0,&quot;rounded&quot;:0};" parent="wsWi3bMlTMWLQj8raXSB-93" vertex="1">
          <mxGeometry x="50" y="305" width="10" height="100" as="geometry" />
        </mxCell>
        <mxCell id="wsWi3bMlTMWLQj8raXSB-96" style="edgeStyle=elbowEdgeStyle;rounded=0;orthogonalLoop=1;jettySize=auto;html=1;elbow=vertical;curved=0;" parent="1" target="wsWi3bMlTMWLQj8raXSB-95" edge="1">
          <mxGeometry relative="1" as="geometry">
            <mxPoint x="83" y="772.9473684210527" as="sourcePoint" />
            <mxPoint x="1322.5" y="772.9473684210527" as="targetPoint" />
          </mxGeometry>
        </mxCell>
        <mxCell id="wsWi3bMlTMWLQj8raXSB-97" value="&lt;div style=&quot;font-family: &amp;quot;Source Code Pro&amp;quot;, monospace;&quot;&gt;&lt;font style=&quot;font-size: 11px;&quot;&gt;reboot&lt;/font&gt;&lt;/div&gt;" style="edgeLabel;html=1;align=center;verticalAlign=middle;resizable=0;points=[];" parent="1" vertex="1" connectable="0">
          <mxGeometry x="812" y="762.0033333333333" as="geometry">
            <mxPoint x="-429" y="2" as="offset" />
          </mxGeometry>
        </mxCell>
        <mxCell id="wsWi3bMlTMWLQj8raXSB-103" value="" style="edgeStyle=elbowEdgeStyle;rounded=0;orthogonalLoop=1;jettySize=auto;html=1;elbow=vertical;curved=0;" parent="1" edge="1">
          <mxGeometry relative="1" as="geometry">
            <mxPoint x="82.5" y="604.4782608695652" as="sourcePoint" />
            <mxPoint x="490" y="604.4782608695652" as="targetPoint" />
          </mxGeometry>
        </mxCell>
        <mxCell id="wsWi3bMlTMWLQj8raXSB-104" value="&lt;div style=&quot;font-family: &amp;quot;Source Code Pro&amp;quot;, monospace;&quot;&gt;&lt;font style=&quot;font-size: 11px;&quot;&gt;applyPayload&lt;/font&gt;&lt;/div&gt;" style="edgeLabel;html=1;align=center;verticalAlign=middle;resizable=0;points=[];" parent="1" vertex="1" connectable="0">
          <mxGeometry x="270" y="600.0033333333333" as="geometry">
            <mxPoint x="-4" y="-5" as="offset" />
          </mxGeometry>
        </mxCell>
        <mxCell id="wsWi3bMlTMWLQj8raXSB-107" value="" style="edgeStyle=elbowEdgeStyle;rounded=0;orthogonalLoop=1;jettySize=auto;html=1;elbow=vertical;curved=0;" parent="1" target="wsWi3bMlTMWLQj8raXSB-106" edge="1">
          <mxGeometry relative="1" as="geometry">
            <mxPoint x="500" y="616.1666666666667" as="sourcePoint" />
          </mxGeometry>
        </mxCell>
        <mxCell id="wsWi3bMlTMWLQj8raXSB-108" value="&lt;div style=&quot;font-family: &amp;quot;Source Code Pro&amp;quot;, monospace;&quot;&gt;&lt;font style=&quot;font-size: 11px;&quot;&gt;applyPayloadFd&lt;/font&gt;&lt;/div&gt;" style="edgeLabel;html=1;align=center;verticalAlign=middle;resizable=0;points=[];" parent="1" vertex="1" connectable="0">
          <mxGeometry x="358" y="610.0033333333333" as="geometry">
            <mxPoint x="420" y="-2" as="offset" />
          </mxGeometry>
        </mxCell>
        <mxCell id="wsWi3bMlTMWLQj8raXSB-109" value="对升级文件进行初步校验通过后，用户可见升级接口" style="shape=note;whiteSpace=wrap;html=1;backgroundOutline=1;darkOpacity=0.05;" parent="1" vertex="1">
          <mxGeometry x="-250" y="415" width="120" height="110" as="geometry" />
        </mxCell>
        <mxCell id="ExgLq3ulv9b8SYXM1K6a-10" value="" style="whiteSpace=wrap;html=1;" vertex="1" parent="1">
          <mxGeometry x="27.5" y="190" width="15" height="60" as="geometry" />
        </mxCell>
        <mxCell id="ExgLq3ulv9b8SYXM1K6a-11" value="" style="edgeStyle=elbowEdgeStyle;rounded=0;orthogonalLoop=1;jettySize=auto;html=1;elbow=vertical;curved=0;entryX=1;entryY=0.5;entryDx=0;entryDy=0;" edge="1" parent="1" source="wsWi3bMlTMWLQj8raXSB-2" target="ExgLq3ulv9b8SYXM1K6a-10">
          <mxGeometry relative="1" as="geometry">
            <Array as="points">
              <mxPoint x="110" y="180" />
            </Array>
          </mxGeometry>
        </mxCell>
        <mxCell id="ExgLq3ulv9b8SYXM1K6a-12" value="showScanningDialog" style="text;html=1;align=center;verticalAlign=middle;resizable=0;points=[];autosize=1;strokeColor=none;fillColor=none;" vertex="1" parent="1">
          <mxGeometry x="30" y="150" width="140" height="30" as="geometry" />
        </mxCell>
        <mxCell id="ExgLq3ulv9b8SYXM1K6a-15" value="" style="whiteSpace=wrap;html=1;" vertex="1" parent="1">
          <mxGeometry x="27.5" y="265" width="15" height="60" as="geometry" />
        </mxCell>
        <mxCell id="ExgLq3ulv9b8SYXM1K6a-18" style="edgeStyle=none;rounded=0;orthogonalLoop=1;jettySize=auto;html=1;entryX=1;entryY=0.5;entryDx=0;entryDy=0;" edge="1" parent="1" source="ExgLq3ulv9b8SYXM1K6a-15" target="ExgLq3ulv9b8SYXM1K6a-15">
          <mxGeometry relative="1" as="geometry" />
        </mxCell>
        <mxCell id="ExgLq3ulv9b8SYXM1K6a-19" value="" style="edgeStyle=elbowEdgeStyle;rounded=0;orthogonalLoop=1;jettySize=auto;html=1;elbow=vertical;curved=0;entryX=1;entryY=0.5;entryDx=0;entryDy=0;exitX=0;exitY=0;exitDx=0;exitDy=0;" edge="1" parent="1" source="ExgLq3ulv9b8SYXM1K6a-15" target="ExgLq3ulv9b8SYXM1K6a-15">
          <mxGeometry relative="1" as="geometry">
            <mxPoint x="38" y="190" as="sourcePoint" />
            <mxPoint x="53" y="230" as="targetPoint" />
            <Array as="points">
              <mxPoint x="110" y="260" />
            </Array>
          </mxGeometry>
        </mxCell>
        <mxCell id="ExgLq3ulv9b8SYXM1K6a-20" value="getConfirmRebootDialogFragment" style="text;html=1;align=center;verticalAlign=middle;resizable=0;points=[];autosize=1;strokeColor=none;fillColor=none;" vertex="1" parent="1">
          <mxGeometry x="33" y="239" width="210" height="30" as="geometry" />
        </mxCell>
        <mxCell id="ExgLq3ulv9b8SYXM1K6a-23" value="" style="edgeStyle=elbowEdgeStyle;rounded=0;orthogonalLoop=1;jettySize=auto;html=1;elbow=vertical;curved=0;" edge="1" parent="1">
          <mxGeometry relative="1" as="geometry">
            <mxPoint x="28.166666666666515" y="347.66666666666674" as="sourcePoint" />
            <mxPoint x="290" y="347.33333333333337" as="targetPoint" />
          </mxGeometry>
        </mxCell>
        <mxCell id="ExgLq3ulv9b8SYXM1K6a-24" value="new" style="text;html=1;align=center;verticalAlign=middle;resizable=0;points=[];autosize=1;strokeColor=none;fillColor=none;" vertex="1" parent="1">
          <mxGeometry x="140" y="324" width="50" height="30" as="geometry" />
        </mxCell>
        <mxCell id="ExgLq3ulv9b8SYXM1K6a-25" value="" style="endArrow=classic;html=1;rounded=0;endFill=1;" edge="1" parent="1">
          <mxGeometry width="50" height="50" relative="1" as="geometry">
            <mxPoint x="300" y="385" as="sourcePoint" />
            <mxPoint x="492" y="384.9999999999999" as="targetPoint" />
            <Array as="points" />
          </mxGeometry>
        </mxCell>
      </root>
    </mxGraphModel>
  </diagram>
</mxfile>
